ply
format ascii 1.0
element vertex 123
property float x
property float y
property float z
property uchar red
property uchar green
property uchar blue
element edge 123
property int vertex1
property int vertex2
end_header
3.0058581769926196 -80.95130898355634 48.269998622383824 120 114 111
31.936938154434166 -115.14696970834522 29.351415061205977 120 107 90
80.84654899668413 -101.7825573854883 -4.290205665323979 120 127 72
122.29444659785678 22.559993204245078 -62.91549782762281 120 194 89
88.86976930740994 -44.68938549697835 -21.23704587609178 120 154 85
-41.40395960813929 -31.65903019542608 76.48010777166908 120 124 143
97.48755645696987 -28.0770453037053 -34.68224893416803 120 164 86
-7.4178256349680245 -44.2712277166849 38.24400718003696 120 128 127
-55.22964036117647 36.93936039723074 88.04422248666557 120 150 167
-0.47229207686461283 -71.82832343845055 34.71371972909562 120 119 117
34.3776925969913 126.53012897727892 -3.7538722505448217 120 215 154
20.12546387365042 143.92858643955697 3.127219112378399 120 219 165
35.54308897943867 -93.75486259060632 10.912670224888398 120 119 96
83.08015639767078 -11.310573670708028 -25.40281443027324 120 168 96
9.312905099215099 75.75548875028056 22.87475327647836 120 186 151
46.397835218122935 149.30380675668053 -18.056172641875992 120 229 155
31.56607550568157 166.83480050831832 -8.129341778543294 120 233 166
29.241486317338445 -106.11717349537571 14.50185061431544 120 112 95
108.00556232502399 39.53217421639592 -54.12743039417312 120 197 99
31.90004381269397 -100.99576512958934 15.542496739192284 120 114 95
60.648574126301334 -119.40621074187473 -11.7817786059709 120 114 78
-37.215560282407 -9.412786801456035 59.226068770903645 120 135 149
-74.12309783750598 16.626679770263216 79.90426396221966 120 137 172
110.45357675031978 45.854261604910874 -51.19258325486882 120 200 99
-37.8021859725741 15.869401871125177 58.80542566166369 120 146 156
74.48297007163995 -27.734029277486297 -11.458039453928004 120 158 95
41.46401027703864 -139.40892764159847 -18.76257085751946 120 101 83
-8.593551805085257 -19.006151210551913 38.10233081519464 120 139 134
17.414233907235875 -100.7786251863055 34.92296004047349 120 110 100
1.336648282065554 58.32830438678191 35.495846215946294 120 176 149
47.66393741500237 7.6124655029375905 8.683450365475663 120 166 116
34.53209750272656 -68.51111194727375 11.828022604658937 120 129 102
17.31110652342619 -173.01800612219296 -19.637255740491412 120 81 87
-134.00207195705582 2.471629339602845 -35.24337356389158 120 122 208
22.598808019105096 -159.53493480805986 -26.669451908870222 120 88 88
36.494241636611896 -152.155203785461 -12.60192015321735 120 94 82
44.29204874672833 -91.58563261735348 8.71482739799809 120 122 92
-25.824052911661312 -50.63936429125559 62.205600513795524 120 120 132
-107.98160581532402 14.371900170876584 -3.376761631172495 120 132 195
-131.6792685478651 6.799193736334384 -46.26082293319653 120 125 208
74.8671730721153 -111.65983807586429 2.0736998862741136 120 121 72
90.65045897904086 -71.72067599164231 -12.081003065666534 120 142 75
-5.495785372633449 93.174346722249 33.22377419803686 120 189 162
54.157480131958366 61.49102863704068 5.602621000929394 120 191 126
-20.330200049422974 -213.5718643490726 -37.098044368042444 120 55 96
28.283588206851608 34.80574708028177 16.124780542698318 120 172 131
-106.61335260623001 -6.864048567203382 57.458576677923375 120 120 184
65.62203751229144 108.45203817354187 -24.415782228878765 120 216 135
58.33300823724324 1.1678301335059715 -4.1171635356947744 120 166 109
-27.90442057851174 -7.622463975369277 51.42111901105198 120 139 146
-146.75869789148442 -36.70779307842198 -0.6505464863254887 120 100 201
37.37289519191995 -157.26408855956842 -10.520080845210842 120 92 80
70.40716396508525 58.63723169545132 -14.755075260052813 120 195 120
-13.800492527920618 160.8458397115884 -41.21081148677664 120 220 189
-54.489459636144844 119.64401817784439 -35.21208825556958 120 192 198
-13.221561579832374 75.24933699133753 44.580952418015094 120 179 160
99.62896417112078 -94.41364928621408 -0.5123014691089299 120 134 64
85.07319533773097 121.60668810380558 -29.65153195057375 120 227 130
83.0177527510631 27.1751946833824 -14.002069071444033 120 184 105
15.040887071390202 76.23023018207124 23.172274117995833 120 187 148
20.57289373376578 -50.90672050102676 20.824432791908702 120 133 113
0.17486728260118398 93.6140910404686 32.89989854642829 120 191 159
84.43816297443615 41.69418234923772 -21.766609102352373 120 191 108
75.62080850889254 -99.2736007206997 0.012552351953475769 120 126 75
-24.353845697461026 136.01151503842166 -7.833583502144946 120 205 185
2.7917167416831594 -179.3841758058226 -34.94691697111912 120 75 94
-92.1255219114962 -9.513262406542657 71.59700056336776 120 122 175
-135.52177806423168 -18.078345451005507 7.924816236646067 120 111 200
-32.75268766601675 -216.54209270895723 -51.166824441718234 120 51 103
63.47596307404623 50.81345489068059 -6.716636522755441 120 189 120
18.645499326804657 40.49782754503371 26.144404529187863 120 173 137
-12.30273048756905 161.83086712269068 -19.556508843527098 120 220 187
47.77512254267855 48.19372934894156 9.495146486924977 120 183 126
21.02357155005279 23.21051867199791 26.677944083535525 120 165 131
-176.8689253702365 -46.8214473229839 -34.67276153572376 120 90 216
-86.42331905502186 8.593874192732052 64.19695329926111 120 131 177
76.5674606639371 14.339169770704926 -8.882359999125434 120 176 105
-29.093687619807167 126.5666977716033 5.299132343753925 120 199 184
-164.28305913223457 -8.774797291710618 -79.24011702126393 120 112 223
7.496687288860745 86.5484212150788 30.012027915174407 120 190 154
69.22294135918244 14.53151087854011 -16.153416114810046 120 175 109
-54.75180550752624 101.74539185286926 -27.04877647030398 120 184 193
-58.42177394083629 -18.585037524187683 82.93716265069298 120 126 155
88.77470753070799 -10.279721941378455 -24.010439917897322 120 169 93
-66.58610015401503 28.91520926163018 70.04223832289652 120 144 172
-16.12767367161231 -200.10423297516323 -45.024607390413834 120 62 98
-140.01065840192035 -2.0109758690197252 -38.23649840418287 120 119 209
82.25001607414858 4.588841529205725 -17.006613005067805 120 174 100
-61.38425031617391 106.59154275583836 -29.070370354309986 120 185 198
19.41101794900504 12.565070986452614 33.722341816144336 120 160 129
-52.29319462250989 87.07794448158674 1.7849971091119194 120 177 186
-45.13589116598828 104.1970391505929 -11.181357798565061 120 187 188
0.8463832496643703 -42.52986168429389 35.734857875258584 120 131 123
-28.844261076986278 133.38417713488388 -10.53089608842588 120 204 188
-116.75187180536544 31.090537249580038 -32.69367372362268 120 138 207
-91.21056228897179 74.925433638086 -49.68415123578147 120 164 206
-8.84977040289784 -30.556731620762772 40.75688982925297 120 134 131
-13.098364623265162 -196.99783092142513 -45.39525245971292 120 64 98
33.93662674460681 -79.98048624782386 14.557105273892347 120 124 99
-102.29860832356187 -97.18431920811128 3.3020839307440832 120 84 163
-115.71446670753504 4.890078387732752 2.5599282788093998 120 126 196
66.88566553393655 16.781810082619536 -17.955372610917724 120 175 111
-34.956510626805034 -220.10266498401288 -53.10110491541911 120 49 103
-110.89202336116576 37.663027036988225 -32.4354894705229 120 142 205
-134.96900822304 30.753749874043844 -73.97035058400324 120 136 218
63.07592365411468 90.12193934896283 -10.577586097312606 120 206 130
41.28894737765966 92.8681587226691 3.5911662113844653 120 202 141
95.46846286515755 -17.300167852643327 -29.385428947385776 120 168 89
49.018253716126345 -21.907599786942054 13.417543083185477 120 153 107
37.91004737290608 51.31085353342044 0.2341812612005773 120 183 132
-104.65919630639196 -195.6121169987471 -42.161547928656354 120 42 142
-38.555382591274196 4.167004733175765 59.156898771114236 120 141 153
45.03295414177168 159.63642690640577 -12.829073633476604 120 233 158
-85.64649554705058 44.30312355715773 7.267923376236625 120 150 191
-149.21038231312625 -18.34949619459089 -25.48219622292234 120 109 209
-6.17359994674562 108.80973354348268 40.003616653619574 120 196 166
106.74562251456572 -25.904281473043554 -32.57578508665179 120 167 81
-93.24420384495322 34.175996039918594 5.3886664028288855 120 144 192
57.77839418650162 96.52996861310478 -11.78310866522431 120 208 134
4.507512169967553 -46.18565185726708 31.68080783100791 120 131 121
43.21488720768761 106.93248477895018 2.9792290015394207 120 209 143
118.22379884998475 72.58511485690595 -61.112560988743866 120 215 103
-33.442508061041366 143.63102495998672 -49.81733986747724 120 208 195
0 9
1 17
2 63
3 18
4 6
5 82
6 116
7 92
8 84
9 0
10 120
11 10
12 36
13 83
14 59
15 112
16 112
17 19
18 23
19 17
20 40
21 49
22 84
23 18
24 111
25 13
26 35
27 96
28 1
29 14
30 48
31 98
32 34
33 86
34 32
35 51
36 12
37 5
38 100
39 33
40 63
41 56
42 61
43 72
44 85
45 70
46 66
47 118
48 30
49 21
50 67
51 35
52 69
53 71
54 88
55 42
56 2
57 47
58 76
59 14
60 119
61 42
62 58
63 2
64 93
65 32
66 75
67 50
68 102
69 52
70 45
71 53
72 109
73 89
74 114
75 66
76 80
77 64
78 86
79 61
80 101
81 88
82 5
83 13
84 22
85 97
86 33
87 76
88 81
89 73
90 91
91 81
92 119
93 64
94 103
95 103
96 27
97 85
98 31
99 50
100 38
101 80
102 68
103 94
104 39
105 118
106 120
107 83
108 30
109 72
110 102
111 24
112 15
113 117
114 86
115 42
116 6
117 113
118 105
119 92
120 106
121 23
122 53
