ply
format ascii 1.0
element vertex 434
property float x
property float y
property float z
property uchar red
property uchar green
property uchar blue
element edge 434
property int vertex1
property int vertex2
end_header
-33.59237516493559 -82.56824865129991 88.55886135491228 120 124 143
-118.9597026144583 -138.48195677587915 -20.658491901015193 120 107 89
-84.4382298542309 -114.26948559032733 23.974956939493772 120 115 111
-106.91760921950237 -92.1445057830721 -18.114931065862216 120 129 102
-55.69530951718742 -59.17870417196966 46.37074657852012 120 139 134
-3.934463305962573 -21.414171597803126 134.04402305025982 120 151 167
26.392327237049216 -68.40678379105059 114.06217498940843 120 124 177
11.315301755446821 -44.09718522623118 123.02932247961013 120 138 172
-157.04537523353633 -109.9503944068904 -63.3823840934685 120 126 73
40.85494691957877 -91.80278639393399 104.75100096929205 120 111 181
56.67302489162861 -115.56712044524258 94.50008619067361 120 97 186
-21.375510090579734 -34.25026954065245 93.41774861458283 120 147 156
86.55098030961611 -163.84258185131262 75.08934191457817 120 70 196
-110.89402725370357 -190.6408345868633 -91.0110370246988 120 81 86
-80.93050372670115 -236.7048726958938 -110.50538630274144 120 55 96
-87.14832346972422 -86.31909305880592 8.361728443594215 120 129 113
72.01739663041292 -138.31388798305906 84.23983883661226 120 84 191
-101.9102499625573 -128.67895747435026 -7.284734837450616 120 110 100
-111.73292313586651 -175.74150956345352 -90.44392730191008 120 89 88
130.52650371405602 4.317580742115898 -63.24644236146654 120 149 237
-155.5910791143934 -121.0450885796469 -63.727385953044205 120 120 72
-65.95378239928176 -260.96391409799617 -119.85257568915459 120 41 101
-126.24687677354363 -152.48245541940267 -80.72431443731756 120 102 83
-95.49822367947158 -213.34454374286895 -101.33457775673882 120 68 91
119.4809016268145 87.60496262049293 -85.64057611069133 120 191 241
112.88373414808764 -168.276946439387 44.6771635753907 120 65 208
-121.63677569933216 -110.32999416428062 -37.192052529299275 120 122 92
-158.6346191336904 -77.86149106427547 -65.37690921874294 120 142 76
81.55352445614247 -34.75913967918476 20.64628355484665 120 135 208
-141.77103258801057 -129.49033764714437 -71.98612330155369 120 115 78
70.47771510702262 -119.95422642839242 87.61596604255735 120 94 193
-35.796086337648354 -53.36061167049404 73.6751393319564 120 139 146
111.26159679827113 -43.43992076053469 -14.349497302329405 120 128 222
119.01177261854988 82.95829883040071 -84.20971067577273 120 189 241
-52.52909785664007 -93.96583194571203 55.726250461210256 120 121 131
84.87582821393194 -143.21612614483698 76.91193215121056 120 81 198
53.0775132711447 -26.655049498696766 55.00023524122625 120 142 195
122.94394580616914 -151.11949277949162 24.28124331941962 120 73 215
-135.53529653181246 84.30391426494757 -45.22009755914545 120 219 108
115.79594269223256 -152.30253496765098 40.78884180310328 120 73 212
170.923219466794 -69.26374280447263 -73.59043234567245 120 108 249
-71.2392510067656 -77.85715178689959 28.157810408228066 120 131 123
-102.01611698637062 108.08705152987048 -0.7957630480562785 120 227 130
144.8227039548922 -102.88369707953707 -18.383484792848417 120 94 232
151.13690206622124 -102.09101028763614 -34.62345370674072 120 94 235
-95.04107101101611 -199.24085946153522 -100.31415407606721 120 75 93
-124.4223038736536 1.0473870692446985 -23.183654992531135 120 177 104
-141.27389165243906 -146.24938576327492 -70.90416886935238 120 106 76
-143.86225271034795 -18.61634906115873 -52.711995131283935 120 170 91
137.83377813930966 -124.88056094307389 -78.62974678638398 120 84 225
-68.77337062040105 52.65392710060263 48.90509035750774 120 196 141
39.293510151848224 -73.32198568324075 107.54318847791629 120 120 183
-147.49646148871435 -57.36017089948632 -61.48717127968784 120 151 84
18.649117668275352 -97.10455601510749 60.848397012585195 120 111 168
-76.7032854680153 0.5708574546223356 29.581945754950468 120 171 130
125.04406689771996 -135.63981471875792 20.926134993983982 120 80 219
134.24446984584074 -118.89979770358644 0.9371783673618282 120 88 225
110.23703508703412 169.43800905426596 -106.88614419241712 120 233 246
163.79935087784656 -70.39527788694812 -57.44390523275703 120 108 246
160.7772414764785 -86.3323336185944 -54.30862626037003 120 101 242
54.71406292177917 -96.25064845015596 97.98500138195992 120 107 188
-108.62368748972794 -43.749976714684294 0.5726411621230045 120 153 107
-74.76443196035173 -20.791966733465607 43.79507890318291 120 160 129
-105.47039931535159 41.240658414853826 -4.118918992610369 120 195 120
-38.95261792652469 50.75654583009018 83.78693440378176 120 191 157
-116.7715190528739 125.05767530113476 -28.062276434975196 120 237 124
154.50943876268073 -87.12376644165093 -38.046957411900465 120 101 239
-89.78974466308783 24.99063374247227 22.685533952253024 120 184 126
37.29358998660866 70.27640697246518 53.01297380270163 120 192 199
57.7306220337294 -46.476879688931994 58.562482608539156 120 131 195
131.34540867713613 24.29037584082725 -63.75322199830101 120 159 240
-125.23712615505525 -167.96889697983167 -79.61308910280981 120 94 82
-103.23842454862799 30.67951561009917 3.965484851529391 120 189 120
10.01345715380173 -25.978365544471536 128.44418049192444 120 147 174
-111.15678880343684 -21.348343055596363 -15.146946045197302 120 164 109
-43.28381364315451 11.543483372928293 75.72155493219131 120 172 150
-52.440893684318326 39.01595793137528 60.78115831468358 120 187 148
-130.5684882911752 -7.043627867973665 -33.46970992404754 120 174 100
-117.72290567661442 59.66049580259777 -38.86520041447862 120 205 115
81.49544361903224 38.12863101860963 -0.7185431216991696 120 171 217
-114.02199283095507 113.34079558203588 -19.32297534130696 120 231 124
-88.84527606228464 83.66954067976968 5.870009484125063 120 213 134
-81.22749077751836 136.91996848283148 25.40781912204836 120 239 145
-63.81844681215618 -83.47705425100295 31.574300380206406 120 128 126
22.997395945681646 -151.93062991970453 15.86832891773463 120 84 163
139.24935276129563 -120.52376622307547 -42.433497419825244 120 86 226
-126.36857573052421 15.451300581263059 -26.129920933287234 120 184 105
51.031173810911206 -44.58461428490475 69.92349997261785 120 133 192
25.9268600280752 83.93194970806523 41.83751545940065 120 200 195
91.96310561051587 -112.81823949501582 56.977567317072406 120 95 205
-50.12431410369109 134.1196034653202 61.294249715724966 120 233 161
81.99321072565749 17.840526933115694 -2.483697142994568 120 161 214
-149.05897115201196 -51.5269584035151 -62.70139026934947 120 154 84
120.38673151465139 107.2805089066369 -85.84198805546345 120 201 244
-158.91420119752334 -25.88871999624903 -72.18757398582733 120 168 82
24.850942847092178 -50.09459258447864 117.80202432711289 120 133 178
-82.38479016707538 82.48079842037986 8.729526836271356 120 212 137
-63.043407300169974 -92.11681559493803 35.155843936610836 120 123 126
79.6923518547067 69.58984853516108 -13.59794858921813 120 187 220
-89.81735572775081 -79.40663289965246 5.270226683932537 120 133 113
-91.40757730819865 38.48939757203193 19.032893818364183 120 191 127
-57.85121265619305 101.55763291790416 48.12344748912097 120 218 152
117.93812520128472 -65.39349533348654 -13.590888727791164 120 116 223
-137.13111366449928 97.97712820923881 -48.95404195751353 120 227 110
-35.610913503199974 108.31654720749161 74.82288900232125 120 219 166
7.839143761768999 119.6083708002557 49.80696466934617 120 219 189
59.33043082940333 124.37932957366677 -11.151933093492671 120 216 216
88.27633312435957 -56.883330962067895 21.62045934307192 120 123 209
86.93418842025106 54.689326061776704 -6.449560064560342 120 179 222
-57.702825456178836 122.93622444040794 42.42397986565233 120 229 156
55.51702516791507 -51.69661503460548 62.66692945417401 120 129 193
-103.6887088796488 121.750299354644 -5.143274187043764 120 234 131
-67.98148243551672 -241.58316626947382 -117.60311158855048 120 51 102
75.86703672456643 138.1295537307766 -28.240436080003775 120 221 226
-40.915231353077836 112.72883691148405 67.95178548641297 120 221 163
45.37155344274845 160.49522911692355 -9.23240369867031 120 236 213
-114.12509532329057 -113.71351797349956 -32.58291254372275 120 119 95
-158.45276621580538 -126.52061577912805 -64.35896453608254 120 118 70
-18.371253226251703 -73.52720809999026 109.67547986465439 120 127 153
-162.73566063428038 -80.25733864929606 -63.83553716152917 120 141 73
-176.15088591157598 -98.08532217972316 -65.90800415197694 120 134 64
-25.35869604052777 23.697771430918795 99.49932503172391 120 176 161
-46.66353174690801 18.25412771901261 70.68923594010204 120 175 148
67.864239512368 152.6685350155138 -34.226613188370784 120 230 224
-123.90695516700752 -102.26259219086813 -39.78775828356527 120 126 91
6.311088842584846 91.36305577981966 71.41927996737003 120 206 186
107.48795409870607 50.10852651160945 -42.856454460511685 120 174 231
115.44571167054468 75.3347597951843 -83.72699166111188 120 186 238
136.9566057100345 40.63271697844988 -66.84154725945645 120 166 245
105.56748658692358 -41.839993882109916 -7.007713176621228 120 129 220
-59.317574016210955 40.49059608497913 56.27030403076261 120 188 145
-29.700994710519165 29.394032430937955 90.9015495112712 120 179 159
60.83236837259241 73.77189208140851 5.207876182140832 120 191 211
-122.82718998945082 62.91606291908466 -38.24533425353896 120 207 113
-155.43482491886041 65.74681196493984 -75.70337956598968 120 213 95
25.209137683055257 153.286337421123 30.575108352263776 120 234 202
56.95779185306219 65.3230334481252 16.143970748418973 120 187 208
-161.12724601017914 31.32570660699642 -84.93359263428401 120 196 88
115.36737069610868 138.85278107270852 -95.78257158987603 120 217 246
6.901236443699822 79.469893902357 76.58931691842973 120 200 185
-130.2772607778361 -46.501681173395504 -38.697543283615126 120 154 95
69.68129288157456 20.958112743325177 14.535889372946928 120 164 209
129.76168691433853 55.561088914929634 -72.9309888859003 120 175 243
-118.5106210247162 -1.7020252068442323 -17.852373451183926 120 175 107
70.48009114146842 40.82317261868947 13.866575866209795 120 173 212
111.77786965539408 59.940106889001655 -54.29451695301789 120 179 235
56.85899762445051 76.20634444619574 11.279062249673407 120 193 209
76.10639838966328 -33.98546634616195 27.261004898591576 120 136 206
107.81737718044478 62.2803229688201 -47.31528541374715 120 180 233
113.59812105661791 -68.43405876594585 -7.373475362525719 120 115 220
-80.02404315070392 -90.78047119230165 11.89391126077698 120 126 117
45.90255873297701 148.68905718192204 -4.5428442279815915 120 230 212
102.12054518951774 -109.49617723622148 23.402395977561312 120 96 210
20.083082376641716 135.7490374791182 34.30192211661729 120 226 197
49.37079986923106 158.0909337846062 -16.155247147761347 120 234 215
109.9430712919413 -62.85368260907956 -1.8226594004384362 120 118 219
80.42656473168925 -54.41018893353146 35.33737559365751 120 125 205
96.14880731276847 134.5270578575868 -62.266835496359384 120 217 236
100.03602010672955 143.07626691980423 -75.36142017214605 120 221 239
-80.12872700832104 -218.4682341210759 -107.41135189906018 120 64 99
-150.21342166135622 -30.521961173703204 -70.52787931862778 120 165 87
-167.8786113476265 54.2566071354511 -95.99739422562972 120 209 87
-132.1149437762912 -39.6875372168079 -39.01799316063748 120 158 95
9.009286900080472 -30.97467419737193 123.44132860703276 120 145 173
-44.974570894435956 39.59357778301615 70.04744894050991 120 187 153
78.3654842285821 -102.83786030833649 52.84725025102256 120 102 199
-141.77424679759653 76.52689909823485 -56.6316683003783 120 217 104
126.19302191244914 123.85917763251774 -86.88066251110823 120 209 249
21.002339152972098 114.77687723420462 32.29776085236882 120 216 195
-64.03028468723922 123.31712619167702 38.32713798006285 120 230 152
-74.96016716423611 4.994378805878237 31.548354153941528 120 172 131
-78.97091876207422 -99.83626547487006 13.745370167155821 120 122 116
-39.68366575062836 135.25602178555573 66.52397469093484 120 233 167
-44.54210923996094 47.357362752336975 75.58492718128718 120 190 154
10.669297928025935 88.04223370954008 64.75229225732518 120 204 188
33.56058417104764 30.7557216278281 54.90959657947333 120 172 192
-113.46383096972924 -121.52878103482651 -30.883649977971512 120 115 95
-29.659770550801635 -58.43407313291741 77.56634333351734 120 136 148
-83.94347899526589 22.327280793611994 27.993952963939698 120 182 129
-119.68629584522647 66.80307002875924 -35.69788261263442 120 209 114
-109.20182151025406 -16.917703979880816 -12.126316032792396 120 166 110
128.78768351354682 -2.323649922007161 -62.760889972705925 120 146 236
-86.50537258301473 89.16029985553585 9.594621956747561 120 215 135
-27.747776822674133 61.98938111271084 99.43559509630488 120 195 165
135.9066266065464 23.167475142305594 -66.76681050656119 120 157 242
20.7906534903862 54.336125544257584 72.804592466253 120 186 188
96.53533019014044 146.3852694595366 -66.12761148453525 120 223 237
-5.843345295353799 -2.0860118236532212 133.259037857006 120 160 169
22.276061694629348 -205.62104239030415 17.99741851469807 120 58 156
-133.1891611354282 -19.57477795844117 -49.32264007947372 120 168 97
82.10015334398886 -105.79471539451393 43.68595638453334 120 100 200
-128.12918035273015 37.23435567562325 -33.87640795115689 120 195 107
94.40843850998913 -85.1041899599302 30.773753966302884 120 109 209
70.46528937878828 -65.89528667059858 62.78573487810483 120 120 199
9.642293652416102 -239.07826229984474 -67.51431294211197 120 43 143
99.2546070783839 -74.79006934821089 27.13285903066269 120 113 212
-66.92260430635147 127.67861606471229 37.7637238321868 120 232 151
-108.23087018824799 -32.26462818574527 -8.823246898086088 120 158 109
-99.39349554052662 -219.25397946587537 -102.56428260266684 120 66 89
-164.68441550662925 13.233249780867236 -79.4098736731871 120 188 84
132.99118021604457 62.27366903576765 -79.8473398294713 120 177 245
84.09201986364015 -60.57137676232557 25.776711249122965 120 122 207
77.28063773358451 -96.96398516912595 59.719515007303706 120 104 199
114.63769726496297 -119.08347690779979 29.183726543456647 120 89 215
-128.8833050086499 -171.9181830743285 -83.24545500942932 120 92 80
-161.375919057151 52.9121531806377 -92.83730020318012 120 208 91
-171.5879292611081 115.34509616343968 -109.38946707865773 120 239 92
-122.41221855843632 30.0474941927495 -24.76213664355416 120 191 109
71.2009127431974 100.36204148959493 -26.02151472113131 120 203 219
-27.95404431453157 50.58853073829256 90.61128782246821 120 190 164
-71.67963063822462 64.28618685507342 39.06497906368843 120 202 141
-27.928547389154737 -65.92580275006493 79.76228416172074 120 132 148
128.4043888406781 -82.3865055227308 -9.047243269423538 120 106 226
71.41635977803037 -21.45264794622726 32.467031379561675 120 143 205
-160.30695469793713 5.866728506511226 -76.52032097216168 120 184 85
31.69587512054204 51.5053515246463 57.877348860799614 120 183 193
83.52837475786646 77.85948740681977 -17.92722509897877 120 190 222
100.16214076871638 -103.99259807807296 29.17428936672019 120 98 210
38.33400644505399 55.62789760153569 56.21173882199139 120 184 197
-110.47666643375624 -102.2211295407492 -21.784028858762596 120 124 99
98.19782296252409 -11.136231090267414 1.6700960147071753 120 145 219
42.065063971255746 -13.655414921008079 67.32349344359153 120 150 191
-148.03826065823608 -22.64003492224332 -59.516355098388956 120 168 89
-103.59900665619904 -13.335798117482 -6.130552998429362 120 167 114
57.43056800162414 93.09382289117403 -12.374707952294502 120 201 211
147.98002241740406 -25.190028132117497 -61.21003485577715 120 132 243
33.435379480378 92.0554275350095 42.336047454381024 120 203 199
-112.0412751146607 1.2989249516642494 -16.963843997860266 120 175 111
-95.11513604942778 105.69485802938576 5.401491213459369 120 225 133
20.712492144994492 35.47832343089879 75.83958369208702 120 176 186
46.93962233584555 -24.661465223463747 59.58138856784903 120 144 192
-82.8436987998624 -222.13602345104778 -111.1816118767157 120 63 97
88.84049794993535 40.367471785669174 -3.238905300040037 120 171 221
108.43749049886316 165.4166637502631 -105.54748057553846 120 231 245
-159.25425581860688 60.7710956951735 -82.42842132711942 120 211 93
-59.11659748985009 -69.11824995724083 43.413364874491066 120 134 131
120.33942221983864 26.68970989402138 -48.90909023939292 120 161 235
37.2214138415127 -204.82555363147415 7.725775033131492 120 56 164
48.137955187722 2.9386673154720273 62.487726748445475 120 157 196
30.044973650215987 -201.62896461353762 22.797929859144062 120 58 161
53.11508822017391 104.86554903182402 8.809068317022206 120 207 211
103.01172192213399 167.07235496447328 -96.31172533931611 120 233 243
70.53123163391238 -78.31942754161817 59.07135978750271 120 115 198
68.64470872603046 89.28333530103941 -28.090185247150234 120 198 216
-94.55730408949165 61.068264312886924 10.424786648376385 120 203 128
-81.69044218690388 92.55619121928744 12.250851096337 120 217 138
-140.56857584403915 35.20132536677333 -63.573762079071685 120 196 100
8.659069680516664 139.5954629687257 48.51634928622568 120 229 192
-170.33255056936463 89.55023340238942 -97.5912289979887 120 226 90
-129.9775800059211 82.5104596918025 -39.20740344726463 120 218 111
-24.52418198942173 -76.89986440223794 100.60576565982215 120 125 148
127.0437092657889 109.07859604224059 -86.24120826759905 120 201 248
123.04361552710466 145.79458013730618 -100.70553775057512 120 220 250
71.47485871916655 160.747814007089 -41.60839439746301 120 233 226
54.690497057829894 -100.78616432608025 93.59099597550389 120 105 187
101.09409556955151 -30.068215499740624 -2.0485189472589584 120 135 219
-39.001961729292795 145.6634615887289 76.0032151589309 120 238 169
-146.46956227454515 -122.41771863382468 -72.8750284327134 120 119 77
76.20038574315768 -88.17921939064556 57.144919988530184 120 109 200
-144.56997610668668 64.60706095209707 -69.68603507150418 120 211 101
77.83737194612637 123.6756678339902 -25.97632852989448 120 214 225
165.37276658485146 -31.301271691165578 -85.48948179469622 120 127 251
58.297454544025015 104.9583409999011 -6.787793776903983 120 207 213
4.058509950005942 118.80404129019597 72.4411308060754 120 220 188
67.99072338334572 120.7341518557847 -28.1444549228016 120 213 219
74.46398354800236 13.732850669396438 9.242734788404029 120 160 211
-175.63873463087495 95.87382290483102 -103.39595052799227 120 230 88
-138.2846175707246 120.94872909745497 -55.16058041035507 120 238 111
73.7061141764636 120.82924295392831 -26.097782354757555 120 213 222
-147.2078000931037 114.1773907257852 -67.23114103522582 120 236 106
8.917026460021571 5.886810081067501 131.37242834038398 120 163 177
27.25903629128608 138.79636337989473 34.04518876867821 120 227 201
133.8678205233988 -2.21077821252962 -63.53780405200859 120 145 238
-114.09663893194596 69.7841649012982 -32.89526167635286 120 209 118
-24.155513077673795 -46.12931530650661 89.14753184490294 120 141 153
44.551250294917565 -19.12010880519834 69.18790524458142 120 147 192
123.03644735424727 1.76592647838893 -56.465610131741556 120 149 233
2.6909873693163395 0.057966568095792675 121.30433693441555 120 160 173
-88.54890726690748 53.02760400171525 18.612374649230375 120 198 130
-141.07283257512896 72.17792730112872 -59.685273586063225 120 214 104
-12.624209677061545 -76.4629005664727 117.07838120018798 120 125 156
100.12965843592931 -94.8422278074467 27.5271769640901 120 103 211
96.38222876086711 -91.84894606743688 32.65975155175838 120 105 209
12.128673937848404 114.02877153986454 47.90005946508481 120 216 191
-94.74567123316035 28.955208313103807 36.17005960668628 120 186 124
-56.720864779357285 75.83112114831226 59.095039334142825 120 205 150
-55.688951632222334 130.8301292805584 52.816279447489784 120 233 158
-28.790390323743274 18.99183431958805 94.79404312091917 120 174 158
-96.39081996127639 -34.86771727783105 13.679387626469476 120 155 115
133.9340496031769 -123.80279149199184 -8.71599544155292 120 85 224
4.635953595027081 14.180456198236831 98.90894405908293 120 168 175
14.552845643234004 35.38671637960712 95.77019547055598 120 177 183
56.271696075154196 99.08122401780689 -3.1852835019951535 120 204 211
-143.11301919780576 43.52740327167373 -60.01569342558402 120 200 99
-133.3257128340122 112.81996203241813 -48.95583278344469 120 233 113
113.47728346354604 -48.725104416496 -8.027510260446883 120 124 222
184.59401872401313 -43.762902420277996 -86.13534341332554 120 119 259
-74.08653005980838 -83.0523409796495 21.142536000201307 120 130 121
-105.96896460477595 -130.8593589379364 -3.9824941819930397 120 109 97
103.19201021568952 -36.887262310461566 -0.5732587344551074 120 132 219
132.84827812526134 -11.545006644703879 -55.86435855995751 120 140 236
-23.795902437815208 -50.670079441822764 86.45028375074948 120 139 153
73.8529835338701 -26.764749500261285 33.37602793383917 120 140 205
-77.7411330363281 23.155966106740337 27.297134893969478 120 182 132
109.82155679512918 78.83576443063338 -72.10634495203026 120 188 236
99.97226812399074 -57.03650048718563 6.712476586730248 120 122 215
158.88882777431564 -42.61230261100649 -75.28222194043599 120 123 246
47.68960481369084 23.170458306591403 59.83635595760141 120 167 199
5.104387064366676 83.88104088320824 76.470919349114 120 202 184
147.72011783107246 -5.134227945868583 -61.110041194155045 120 142 245
136.56741338107278 -122.67125243052224 -54.069045622862966 120 85 225
-73.42791494200505 -96.20243656994273 24.73829025722796 120 123 120
98.81094480035624 112.92971208466238 -68.56396017936642 120 206 234
-59.221107783343605 -77.60271036754568 41.543807515149496 120 130 130
109.43236521372566 109.86141316120707 -70.67955395496082 120 204 239
113.81033876617778 6.641547193117917 -30.82944433982778 120 152 230
62.47354316146705 -18.955466159911058 55.643364842351396 120 145 201
112.84949345716223 106.10264579819271 -86.42220282779161 120 201 240
-70.55768617199895 9.481677925050748 33.68876611155231 120 174 134
-9.932831248157706 18.77827711613914 128.2099587751615 120 172 169
-64.68145324957501 84.50282683174191 52.34349227646425 120 210 147
-60.130596784830026 45.47488891905713 60.78528791330165 120 191 145
64.41573747984506 21.01292201716665 36.467846357445175 120 164 207
-60.76443105685302 -10.508853895947755 60.202637523835286 120 163 137
91.21870038258017 -27.94656745353975 20.345428397720372 120 137 214
-38.162441875112265 -45.16684207884632 70.50485701283884 120 143 145
70.1648162367952 -48.326610026666636 40.5534604008247 120 130 201
97.73247248311597 8.855242610269796 0.0427433303135821 120 155 222
122.8377570218741 71.4135098151811 -80.97993501097041 120 183 241
119.74078550646352 6.810411953306613 -45.88293337800475 120 151 232
119.35245096491442 -73.50521560662895 -16.978796360049003 120 112 223
85.58177445957816 -83.33904640891933 51.8061679175236 120 110 205
120.62921107999627 -35.64081354800193 -14.42275702196632 120 130 228
-72.88484795087146 -10.542202505407145 36.44398749844214 120 165 131
48.32102719858184 -47.7633080520921 74.52576094167019 120 132 190
104.2646959159963 86.03797092391684 -48.81080528396297 120 193 234
17.30113830874065 103.36762219256771 28.292501911853858 120 210 192
32.16399668815639 75.82195303173437 48.24279967572345 120 195 197
97.26435355246664 174.08495954018142 -90.97723400478982 120 237 240
-125.38355338297264 44.968801451338855 -27.056766231544067 120 198 109
94.21725961424498 138.69708955961468 -62.59463349361917 120 219 235
90.09993830856486 -66.0600851143125 18.71141418821934 120 119 209
138.90027073843035 82.80142650397167 -435.64606940417985 120 201 258
-158.6786286896102 25.389143104138608 -88.87826868501764 120 194 89
-169.7448297322929 108.74495243262386 -110.78974399771226 120 236 93
87.62404673097963 -118.06924838298605 56.95085913392923 120 92 201
-23.100115256362916 -61.17536350117777 89.50362906739885 120 134 152
-91.79826425682336 68.75999954610491 16.888359922450285 120 206 130
-62.106984511048374 5.806041418206511 54.970844813997715 120 172 139
-105.79231157787805 111.84316361971254 15.178125930923168 120 229 128
50.35598352004661 -248.4268591953608 2.935392078759126 120 33 165
123.8934827984241 -7.746454537638616 -60.34586892414198 120 144 233
139.87120555274427 -114.13381269795971 -20.65127816550872 120 89 228
-64.2584982455023 80.83604780809996 46.80433116539125 120 209 147
74.05564969490374 6.605730853032992 8.07191057533189 120 156 209
-123.24431373751999 20.82516362316048 -22.254974578675256 120 186 107
110.55009381576683 -125.2101429637809 27.34769045435829 120 87 212
-89.31507409723667 43.693396812393296 21.713202359773298 120 193 128
109.18776841739125 -67.77584574030378 -1.7115181614169472 120 116 218
18.39152510461919 -189.80309855695396 14.045811820164037 120 66 156
-109.92143072914159 39.12700304091422 -8.088264214205397 120 194 117
24.649677313011384 29.847843398926546 71.27267253436331 120 173 188
-117.27701635735764 49.86032808361993 -18.675569523782688 120 199 113
-100.44879863095795 -195.2550162186733 -99.73573119795229 120 78 91
24.160324597461656 -248.17613231639515 -68.67822217313274 120 36 150
60.52918554502074 -57.458377016339234 54.82907611128844 120 126 195
-55.32147061800665 95.61001225209525 45.5463727014339 120 215 154
-123.38607688023328 84.743540704212 -40.006061887720364 120 218 115
166.14750759378924 -49.6631648727293 -74.93045938451263 120 118 249
54.68269197232412 70.58901961275303 15.963781067590805 120 190 207
25.35416153977764 20.349271122463996 66.35507836056433 120 169 187
142.8223182145531 -108.35096374426081 -28.524559093168634 120 92 231
-174.56470249149487 59.80514080320966 -95.81605300250813 120 212 84
130.6260124874847 -128.98517031335172 -10.698626313409243 120 83 222
5.65693121851005 -81.0300079403406 73.60179875475103 120 121 164
112.4326672024649 155.99823963647717 -106.07048096076034 120 226 246
132.62323250563546 46.71334049987745 -73.08706110306254 120 170 244
21.934129851297097 159.71220107585597 25.317625584301098 120 238 202
93.6695705136569 172.85176547097467 -72.85287155867009 120 237 239
101.55333540630346 161.04047201448927 -96.0850665270048 120 230 241
-11.065380269595453 -1.3404945567036877 130.6567498239174 120 162 166
-136.09009954247614 42.75622564513164 -54.928926072764526 120 200 104
-100.6253294821507 127.16804789915261 -1.647567232395537 120 236 133
-10.467550460301709 -56.307894825429706 84.3066346902423 120 135 158
-82.59102499885297 73.75165133877499 26.587107172755513 120 207 135
-134.01358613656623 103.48629752857249 -45.593758155375255 120 228 111
-111.25742176941719 -181.54049668927564 -96.39349797254285 120 86 87
-70.90353702423445 130.4163727445407 37.54310411258494 120 234 149
114.12345296285666 24.77301290680547 -52.75133244121992 120 161 231
55.540837930146004 -32.40862133135141 64.63422308583938 120 138 195
121.32042215232654 131.20402349755074 -94.80668052022749 120 213 248
-103.28426653595605 6.827811153961518 3.1293121400804553 120 177 116
108.58248098008411 -90.48461693406381 22.79215053564023 120 104 216
19.77544414104289 -199.79212318685805 15.581166861521185 120 61 156
12.656348124772972 105.41784625209088 45.52897606042957 120 212 190
125.75988716708962 -62.895153111143955 -17.599877429327616 120 116 228
83.48085278492732 61.21297711506623 -11.991440884708874 120 182 221
-92.93766361664902 129.59406257638986 9.006997746066585 120 237 138
71.87591329835948 -106.4766836504195 65.58144197188625 120 100 195
-120.9618262326895 -25.843123120658998 -21.09800500512473 120 163 103
-115.62650110080097 23.121392494915256 -11.892134776847202 120 187 112
-80.79748914180566 46.322090063714434 32.41082530244726 120 194 134
-121.01252567021412 121.64022404035764 -32.545883955310536 120 236 121
71.22504928480126 145.16107825918672 -34.2695998278139 120 225 224
14.00403580705881 30.608633521086553 87.66198554130983 120 175 183
-58.89218653150045 -259.51051721448096 -124.54113047358688 120 41 104
-69.56838574806731 78.57343679499407 48.484591849798974 120 208 144
15.131108589087733 -230.09810101666196 -60.954270150771 120 46 147
22.651176360470732 76.23023413359009 65.07326162646764 120 196 192
49.26311797731807 86.59921646191277 10.207239320808917 120 199 206
60.27771612529701 -23.687647019510553 58.34652179040966 120 142 199
-30.08225794273978 100.22672072669324 93.5678557595171 120 214 168
171.76646308855348 -52.36651423154944 -77.52476524248381 120 116 251
63.407376446534734 97.68153616092701 -8.609057029186905 120 203 215
103.6817296986924 173.35660973849005 -107.96729550282919 120 236 243
97.47806417908087 -114.22733490895155 40.032212136456266 120 94 207
-124.45325492537104 135.8559615134464 -63.987417175330094 120 239 114
-64.49214667044401 38.068267655646714 58.20605749685717 120 187 141
30.125533856341452 119.87424964405837 30.852008539524554 120 217 201
16.92743198940502 -154.82162661166703 10.231572245906678 120 83 160
132.33853469345607 85.69332587136876 -79.36188758289121 120 189 248
110.82499959736313 30.28817986316691 -48.37798622854385 120 164 230
-75.18682506138683 -108.72203894802955 33.17981775559691 120 116 117
99.05983046165639 73.34912174684624 -48.71840679682963 120 187 230
57.96781568193041 0.21168996765694134 37.32595236798456 120 155 200
-76.01771947294807 60.82293795812597 34.157683456643525 120 201 138
-77.06504692768405 -77.69551832711547 23.84366572431084 120 132 120
4.7610314002891805 36.3968703963373 88.24522992296981 120 179 179
12.56992091236797 159.05804481290423 52.320019688474524 120 238 198
-126.28297758708939 105.8951451847619 -34.80312391146252 120 229 116
46.4327268375575 -59.54215230284294 77.92450349965291 120 126 188
-4.590297595414656 147.04921282667772 60.97681345519703 120 234 186
69.3547862059197 72.4561306824457 8.323901988242621 120 189 215
-68.20870795259917 30.079555220994813 48.18250826294435 120 184 138
0 250
1 176
2 422
3 219
4 235
5 73
6 51
7 163
8 20
9 60
10 254
11 274
12 35
13 386
14 231
15 99
16 35
17 298
18 386
19 181
20 117
21 405
22 71
23 198
24 33
25 39
26 124
27 119
28 147
29 257
30 10
31 177
32 295
33 24
34 313
35 16
36 230
37 55
38 249
39 25
40 412
41 426
42 228
43 371
44 371
45 363
46 143
47 29
48 222
49 310
50 210
51 6
52 92
53 374
54 170
55 37
56 289
57 233
58 59
59 58
60 254
61 197
62 333
63 360
64 173
65 402
66 44
67 178
68 337
69 110
70 184
71 204
72 63
73 163
74 180
75 122
76 130
77 46
78 133
79 232
80 65
81 182
82 387
83 97
84 419
85 310
86 355
87 334
88 226
89 345
90 286
91 265
92 52
93 251
94 160
95 7
96 81
97 83
98 396
99 15
100 357
101 366
102 149
103 385
104 114
105 283
106 264
107 201
108 396
109 169
110 69
111 382
112 14
113 403
114 104
115 154
116 176
117 20
118 280
119 27
120 119
121 287
122 75
123 403
124 26
125 174
126 148
127 33
128 376
129 299
130 417
131 287
132 146
133 179
134 234
135 377
136 369
137 343
138 390
139 308
140 162
141 265
142 376
143 227
144 79
145 148
146 369
147 28
148 145
149 358
150 15
151 115
152 217
153 271
154 115
155 358
156 201
157 340
158 186
159 231
160 94
161 205
162 140
163 73
164 173
165 202
166 279
167 390
168 418
169 196
170 54
171 150
172 90
173 164
174 125
175 307
176 116
177 211
178 303
179 133
180 74
181 272
182 245
183 209
184 70
185 215
186 340
187 380
188 393
189 48
190 165
191 339
192 282
193 242
194 407
195 192
196 387
197 74
198 23
199 214
200 142
201 107
202 165
203 356
204 71
205 161
206 344
207 355
208 243
209 64
210 425
211 177
212 330
213 302
214 199
215 218
216 98
217 152
218 215
219 3
220 255
221 275
222 48
223 180
224 413
225 309
226 88
227 143
228 42
229 361
230 36
231 159
232 79
233 57
234 134
235 313
236 388
237 239
238 221
239 188
240 292
241 379
242 258
243 208
244 347
245 182
246 293
247 153
248 266
249 367
250 118
251 93
252 138
253 123
254 60
255 299
256 172
257 29
258 202
259 134
260 268
261 306
262 292
263 105
264 268
265 354
266 248
267 294
268 260
269 267
270 277
271 153
272 181
273 179
274 301
275 221
276 181
277 270
278 357
279 166
280 118
281 282
282 281
283 105
284 67
285 320
286 90
287 121
288 61
289 373
290 404
291 404
292 262
293 381
294 385
295 32
296 412
297 426
298 17
299 255
300 351
301 274
302 213
303 178
304 127
305 155
306 368
307 175
308 139
309 272
310 85
311 171
312 314
313 235
314 312
315 329
316 410
317 93
318 170
319 380
320 353
321 130
322 424
323 348
324 28
325 31
326 156
327 91
328 127
329 276
330 102
331 258
332 32
333 62
334 87
335 423
336 168
337 68
338 241
339 191
340 157
341 107
342 375
343 137
344 206
345 89
346 301
347 244
348 323
349 228
350 237
351 181
352 371
353 406
354 265
355 86
356 203
357 100
358 155
359 393
360 63
361 229
362 339
363 45
364 194
365 110
366 101
367 249
368 412
369 136
370 361
371 352
372 161
373 289
374 53
375 233
376 142
377 135
378 338
379 241
380 187
381 293
382 111
383 346
384 347
385 103
386 18
387 196
388 236
389 36
390 138
391 223
392 281
393 188
394 283
395 102
396 108
397 382
398 202
399 74
400 355
401 357
402 65
403 123
404 291
405 21
406 353
407 194
408 174
409 146
410 316
411 104
412 368
413 224
414 57
415 217
416 267
417 130
418 168
419 84
420 24
421 388
422 2
423 335
424 322
425 210
426 297
427 404
428 247
429 385
430 334
431 247
432 132
433 417
